HIERARCHY
ROOT Hips
{
 OFFSET 0.000000 0.000000 0.000000
 CHANNELS 6 Xposition Yposition Zposition Yrotation Xrotation Zrotation
 JOINT Chest
 {
  OFFSET 0.000000 9.585900 0.002600
  CHANNELS 3 Yrotation Xrotation Zrotation
  JOINT Chest2
  {
   OFFSET 0.000000 9.601200 -0.005300
   CHANNELS 3 Yrotation Xrotation Zrotation
   JOINT Chest3
   {
    OFFSET 0.000000 9.561800 0.000000
    CHANNELS 3 Yrotation Xrotation Zrotation
    JOINT Chest4
    {
     OFFSET 0.000000 9.552100 0.000000
     CHANNELS 3 Yrotation Xrotation Zrotation
     JOINT Neck
     {
      OFFSET 0.000000 14.453000 0.000000
      CHANNELS 3 Yrotation Xrotation Zrotation
      JOINT Head
      {
       OFFSET 0.000000 8.936500 -0.011300
       CHANNELS 3 Yrotation Xrotation Zrotation
       End Site
       {
        OFFSET 0.000000 17.073600 -0.006000
       }
      }
     }
     JOINT RightCollar
     {
      OFFSET -2.921100 9.558500 0.000000
      CHANNELS 3 Yrotation Xrotation Zrotation
      JOINT RightShoulder
      {
       OFFSET -13.519700 0.000000 0.000000
       CHANNELS 3 Yrotation Xrotation Zrotation
       JOINT RightElbow
       {
        OFFSET 0.000000 -29.696600 0.000000
        CHANNELS 3 Yrotation Xrotation Zrotation
        JOINT RightWrist
        {
         OFFSET 0.000000 -24.004700 0.000000
         CHANNELS 3 Yrotation Xrotation Zrotation
         End Site
         {
          OFFSET 0.000000 -17.728500 0.000000
         }
        }
       }
      }
     }
     JOINT LeftCollar
     {
      OFFSET 2.921100 9.558500 0.000000
      CHANNELS 3 Yrotation Xrotation Zrotation
      JOINT LeftShoulder
      {
       OFFSET 13.519700 0.000000 0.000000
       CHANNELS 3 Yrotation Xrotation Zrotation
       JOINT LeftElbow
       {
        OFFSET 0.000000 -29.696600 0.000000
        CHANNELS 3 Yrotation Xrotation Zrotation
        JOINT LeftWrist
        {
         OFFSET 0.000000 -24.004700 0.000000
         CHANNELS 3 Yrotation Xrotation Zrotation
         End Site
         {
          OFFSET 0.000000 -17.728500 0.000000
         }
        }
       }
      }
     }
    }
   }
  }
 }
 JOINT RightHip
 {
  OFFSET -7.771700 -0.012900 -0.001300
  CHANNELS 3 Yrotation Xrotation Zrotation
  JOINT RightKnee
  {
   OFFSET 0.000000 -40.869800 0.001200
   CHANNELS 3 Yrotation Xrotation Zrotation
   JOINT RightAnkle
   {
    OFFSET 0.000000 -39.717900 0.002100
    CHANNELS 3 Yrotation Xrotation Zrotation
    JOINT RightToe
    {
     OFFSET 0.000000 -4.965400 11.033500
     CHANNELS 3 Yrotation Xrotation Zrotation
     End Site
     {
      OFFSET 0.000000 -1.423100 5.872300
     }
    }
   }
  }
 }
 JOINT LeftHip
 {
  OFFSET 7.771700 -0.012900 -0.001300
  CHANNELS 3 Yrotation Xrotation Zrotation
  JOINT LeftKnee
  {
   OFFSET 0.000000 -40.869800 0.001200
   CHANNELS 3 Yrotation Xrotation Zrotation
   JOINT LeftAnkle
   {
    OFFSET 0.000000 -39.717900 0.002100
    CHANNELS 3 Yrotation Xrotation Zrotation
    JOINT LeftToe
    {
     OFFSET 0.000000 -4.965400 11.033500
     CHANNELS 3 Yrotation Xrotation Zrotation
     End Site
     {
      OFFSET 0.000000 -1.423100 5.872300
     }
    }
   }
  }
 }
}
MOTION
Frames: 16
Frame Time: 0.008333
-47.446065 57.813463 11.442274 179.028535 -47.886329 -2.475564 3.482077 21.635369 2.810078 1.805240 12.323177 1.478245 2.319801 15.442719 1.911626 1.802775 12.377631 1.462397 0.003082 14.587439 3.438843 -1.298267 -8.599021 6.435587 2.314417 1.874381 0.964782 -2.602496 -18.548071 -5.829340 -25.660466 -54.207682 60.922215 17.027645 -8.313295 -9.288148 -10.034550 -1.014550 -0.358512 0.514159 -14.942663 9.714857 15.651611 -68.365920 -43.060905 -7.894875 -15.262801 3.068359 3.530825 -23.664382 -4.431362 -35.918480 73.823248 -41.360598 6.309865 -14.347731 12.499020 -0.008232 -0.043181 0.004993 -5.690475 -21.212298 4.055758 85.783810 82.661149 85.663896 0.682562 -22.208988 -17.307973 0.031118 0.060681 0.019381
-47.450112 57.809327 11.450982 179.033316 -47.935643 -2.460570 3.469385 21.593446 2.814249 1.801454 12.344161 1.479226 2.315551 15.445273 1.917999 1.800509 12.362661 1.475205 -0.021969 14.602494 3.404046 -1.328395 -8.602590 6.392772 2.316478 1.861454 0.961286 -2.585080 -18.550209 -5.841907 -25.662857 -54.144829 60.907908 17.055076 -8.255743 -9.294504 -10.041884 -0.969376 -0.392385 0.491795 -15.013602 9.741977 15.664032 -68.230211 -43.043855 -7.871791 -15.294369 3.064215 3.539844 -23.614988 -4.452285 -35.891704 73.826526 -41.333681 6.315050 -14.361461 12.498861 -0.007248 -0.036630 0.004302 -5.685481 -21.168529 4.036549 85.691777 82.643606 85.553181 0.669529 -22.198100 -17.294945 0.021105 0.070332 0.019053
-47.452965 57.810031 11.455207 179.039428 -48.022445 -2.452669 3.463568 21.589902 2.826864 1.797242 12.364135 1.480784 2.311640 15.447006 1.924866 1.797224 12.364102 1.480824 -0.041393 14.637194 3.377316 -1.361482 -8.634419 6.348783 2.315931 1.850879 0.960091 -2.567631 -18.570184 -5.846709 -25.662338 -54.079418 60.895993 17.081244 -8.200354 -9.301415 -10.050103 -0.967247 -0.397466 0.473021 -15.053216 9.752820 15.686464 -68.097568 -43.032385 -7.848807 -15.329193 3.057775 3.549658 -23.528129 -4.462171 -35.883031 73.828799 -41.321267 6.308676 -14.370711 12.498560 -0.011556 -0.034288 0.004805 -5.688148 -21.085953 4.026461 85.662188 82.642675 85.504756 0.663684 -22.188821 -17.296472 0.019966 0.070015 0.025833
-47.454762 57.810917 11.459116 179.047385 -48.109414 -2.451133 3.460869 21.604486 2.838176 1.794225 12.364561 1.487316 2.308089 15.447528 1.932894 1.794190 12.364526 1.487346 -0.066420 14.625233 3.347598 -1.393858 -8.608330 6.301362 2.314295 1.843458 0.962005 -2.551654 -18.588773 -5.853411 -25.611599 -54.005041 60.825207 17.096121 -8.178879 -9.289994 -10.055545 -1.020098 -0.368299 0.468281 -15.012585 9.720988 15.708466 -67.994196 -43.032507 -7.828419 -15.363482 3.058380 3.553849 -23.442356 -4.462792 -35.871280 73.828649 -41.311597 6.304083 -14.365385 12.503714 -0.008057 -0.044177 0.003080 -5.692134 -21.002171 4.023810 85.644556 82.645726 85.468965 0.652856 -22.182780 -17.290369 0.025462 0.066576 0.024396
-47.456186 57.810416 11.464019 179.053771 -48.184445 -2.448946 3.458147 21.605650 2.847655 1.791077 12.364301 1.494221 2.302961 15.485608 1.930067 1.795894 12.325660 1.504214 -0.092331 14.617073 3.314445 -1.425682 -8.575682 6.250955 2.310694 1.860727 0.958626 -2.536294 -18.627027 -5.853266 -25.560672 -53.930857 60.756271 17.104189 -8.163635 -9.283965 -10.062706 -1.008199 -0.371875 0.467998 -14.993390 9.704066 15.719905 -67.945229 -43.038034 -7.813550 -15.384269 3.066628 3.557857 -23.368228 -4.461207 -35.846448 73.832140 -41.291508 6.285123 -14.366436 12.511466 0.004224 -0.052897 0.001353 -5.692800 -20.929021 4.021932 85.611553 82.648719 85.419857 0.643646 -22.180906 -17.282714 0.027580 0.069242 0.024567
-47.456605 57.809969 11.468617 179.063408 -48.259110 -2.453026 3.452969 21.604584 2.861862 1.787466 12.383809 1.495453 2.301421 15.446642 1.947885 1.787403 12.383839 1.492242 -0.107448 14.605546 3.295905 -1.439995 -8.549713 6.225334 2.308332 1.880220 0.953683 -2.528822 -18.655816 -5.849484 -25.662238 -53.894569 60.871888 17.142116 -8.094330 -9.272302 -10.066115 -1.001821 -0.374139 0.460855 -15.055293 9.731158 15.743345 -67.829732 -43.041381 -7.809619 -15.407017 3.044085 3.557649 -23.293752 -4.457903 -35.851047 73.831895 -41.295655 6.301928 -14.379668 12.508291 0.000034 -0.053298 0.001810 -5.694303 -20.859133 4.024277 85.588626 82.653023 85.384298 0.632098 -22.173604 -17.271994 0.030256 0.067344 0.022026
-47.456265 57.809762 11.472687 179.075836 -48.335210 -2.461317 3.446825 21.603961 2.879815 1.783213 12.384245 1.501245 2.296458 15.427960 1.960306 1.779136 12.442269 1.478781 -0.116446 14.627541 3.281360 -1.457878 -8.556411 6.197623 2.319436 1.782449 0.991394 -2.519544 -18.568509 -5.896682 -25.733062 -53.857449 60.948949 17.175992 -8.032872 -9.284608 -10.068309 -0.994928 -0.376906 0.459620 -15.114661 9.759592 15.754004 -67.718667 -43.036682 -7.781392 -15.450191 3.045784 3.553108 -23.217841 -4.452689 -35.831891 73.835742 -41.277358 6.300949 -14.382501 12.507415 -0.010901 -0.058136 0.000091 -5.696039 -20.788548 4.031925 85.587361 82.666229 85.376013 0.621009 -22.168983 -17.269338 0.037572 0.063810 0.025585
-47.456436 57.808250 11.477488 179.088176 -48.400916 -2.464057 3.439208 21.593858 2.891790 1.778754 12.365283 1.512430 2.289595 15.448352 1.963904 1.773333 12.440922 1.483162 -0.140790 14.641698 3.246641 -1.521024 -8.553303 6.092748 2.325134 1.766901 1.003566 -2.500757 -18.637672 -5.897857 -25.677893 -53.727349 60.871260 17.206146 -7.981074 -9.293727 -10.067687 -1.020594 -0.367022 0.468564 -15.069883 9.736861 15.756075 -67.639279 -43.014686 -7.759003 -15.493254 3.025231 3.551147 -23.152102 -4.454085 -35.822043 73.844601 -41.264818 6.282144 -14.395490 12.500326 -0.012875 -0.054315 0.003929 -5.695595 -20.727710 4.028650 85.578065 82.675730 85.361460 0.617549 -22.166072 -17.269117 0.041555 0.063146 0.028348
-47.459914 57.803257 11.484744 179.073958 -48.440252 -2.424824 3.439266 21.559407 2.879465 1.773429 12.402919 1.508019 2.286997 15.448721 1.967993 1.778401 12.348330 1.523274 -0.178678 14.711577 3.188301 -1.564328 -8.527833 6.013116 2.321444 1.824206 0.988329 -2.493103 -18.678467 -5.894890 -25.659317 -53.635612 60.844377 17.239776 -7.939225 -9.267901 -10.075613 -0.971374 -0.403441 0.474946 -15.016866 9.710558 15.745393 -67.602903 -42.979199 -7.711165 -15.529681 3.048930 3.584000 -23.117558 -4.477449 -35.825478 73.855003 -41.264533 6.250189 -14.381205 12.498084 0.000418 -0.070418 0.009376 -5.670462 -20.697597 4.005652 85.582793 82.682466 85.357217 0.604658 -22.193345 -17.267649 0.056673 0.090173 0.036449
-47.459870 57.802712 11.487916 179.081971 -48.513814 -2.420395 3.433615 21.560457 2.891149 1.769557 12.385843 1.518702 2.280375 15.451217 1.977151 1.772966 12.350309 1.530670 -0.210077 14.741688 3.140958 -1.576736 -8.482398 5.984891 2.315376 1.875678 0.970651 -2.491522 -18.731429 -5.879596 -25.666389 -53.564955 60.849375 17.278999 -7.883036 -9.258431 -10.083272 -0.949982 -0.424476 0.483696 -15.031023 9.721009 15.771678 -67.514999 -43.012458 -7.672498 -15.547894 3.068441 3.588764 -23.045031 -4.482264 -35.820217 73.860074 -41.257115 6.239618 -14.390467 12.486093 0.000103 -0.062795 0.021489 -5.664757 -20.627821 3.999909 85.557197 82.690467 85.321789 0.598428 -22.189010 -17.262210 0.056844 0.089829 0.038031
-47.461030 57.802242 11.490649 179.091830 -48.587522 -2.407898 3.423373 21.564281 2.894159 1.765652 12.370766 1.530284 2.273667 15.455170 1.986030 1.765642 12.370748 1.530320 -0.242095 14.706968 3.093714 -1.586993 -8.395038 5.959969 2.310277 1.903205 0.957779 -2.493893 -18.783372 -5.864108 -25.646324 -53.498668 60.825342 17.306206 -7.837030 -9.253811 -10.091418 -0.921979 -0.450188 0.492507 -15.072138 9.742535 15.793025 -67.429708 -43.041063 -7.638338 -15.562243 3.084899 3.594624 -22.971928 -4.496518 -35.816049 73.866403 -41.253857 6.230070 -14.396568 12.484056 -0.007686 -0.065113 0.020475 -5.658051 -20.558920 3.988322 85.540962 82.680048 85.281986 0.573415 -22.181000 -17.238028 0.050872 0.089236 0.031599
-47.457856 57.806458 11.489364 179.126658 -48.695744 -2.437900 3.411165 21.603773 2.927431 1.761237 12.373789 1.536185 2.263420 15.490289 1.977838 1.769945 12.342213 1.549737 -0.266399 14.734625 3.056118 -1.641513 -8.385413 5.840366 2.310750 1.889386 0.961683 -2.501122 -18.797334 -5.866550 -25.569513 -53.434310 60.740732 17.318027 -7.820965 -9.240868 -10.103057 -0.896284 -0.474201 0.498408 -15.160289 9.789529 15.837481 -67.255348 -43.071566 -7.639741 -15.605000 3.062453 3.572497 -22.862346 -4.483831 -35.804924 73.872513 -41.245324 6.229473 -14.422135 12.484506 -0.001640 -0.052568 0.017455 -5.674902 -20.449897 3.996335 85.501157 82.680062 85.226595 0.566831 -22.143375 -17.224299 0.036002 0.060933 0.025284
-47.462252 57.806980 11.490683 179.117625 -48.775673 -2.388675 3.409833 21.619499 2.911394 1.756560 12.376370 1.542171 2.251987 15.523505 1.968007 1.772828 12.329026 1.562214 -0.284940 14.768609 3.030016 -1.681774 -8.383388 5.748828 2.316159 1.812699 0.988501 -2.508110 -18.764826 -5.887434 -25.644831 -53.373683 60.823610 17.354666 -7.702031 -9.197928 -10.113439 -0.908646 -0.471869 0.501341 -15.192593 9.801921 15.874424 -67.155505 -43.115892 -7.625166 -15.613500 3.074623 3.600682 -22.783934 -4.521918 -35.811375 73.880423 -41.252192 6.227156 -14.404413 12.467876 -0.002872 -0.080609 0.028945 -5.648617 -20.376115 3.958346 85.460596 82.683376 85.171096 0.546479 -22.149823 -17.218156 0.051795 0.071272 0.032559
-47.461411 57.806241 11.493475 179.126129 -48.841412 -2.383368 3.407594 21.624040 2.926254 1.751989 12.378251 1.548540 2.250117 15.522684 1.977523 1.756388 12.376550 1.541978 -0.293518 14.743400 3.013321 -1.714422 -8.346382 5.675278 2.320611 1.745718 1.014277 -2.509655 -18.768912 -5.892375 -25.673396 -53.309025 60.854977 17.388420 -7.625281 -9.190222 -10.118280 -0.940461 -0.442038 0.502630 -15.214484 9.797969 15.892081 -67.059082 -43.119342 -7.597996 -15.650493 3.071903 3.605163 -22.720134 -4.530202 -35.817959 73.885007 -41.256255 6.229876 -14.410772 12.464106 0.006140 -0.090531 0.022549 -5.645653 -20.312437 3.949683 85.430983 82.689083 85.134217 0.542961 -22.146408 -17.214516 0.056693 0.072529 0.032114
-47.460366 57.804456 11.497254 179.132503 -48.895798 -2.377516 3.404300 21.649358 2.929223 1.751696 12.364965 1.558539 2.251953 15.465993 2.013511 1.739914 12.420399 1.527938 -0.318460 14.762801 2.969641 -1.742570 -8.310332 5.597600 2.313281 1.741543 1.010039 -2.502803 -18.788262 -5.890458 -25.681383 -53.249027 60.859771 17.416338 -7.563574 -9.184129 -10.123495 -0.937093 -0.446601 0.496237 -15.230343 9.797685 15.925325 -66.966569 -43.128363 -7.569618 -15.677989 3.081247 3.610634 -22.666431 -4.536962 -35.822009 73.887024 -41.257243 6.227406 -14.419561 12.463080 0.006146 -0.085199 0.021286 -5.641942 -20.260601 3.937052 85.406935 82.690891 85.105827 0.549901 -22.144277 -17.214071 0.053234 0.077649 0.029522
-47.460934 57.799353 11.503900 179.140858 -48.920768 -2.363801 3.394856 21.647273 2.920721 1.747813 12.379512 1.555334 2.257443 15.411405 2.043284 1.744540 12.380659 1.560911 -0.368728 14.800653 2.879397 -1.755983 -8.239792 5.577324 2.287123 1.790160 0.982282 -2.490478 -18.787090 -5.898954 -25.662470 -53.205399 60.833657 17.429680 -7.535375 -9.163915 -10.141229 -0.884630 -0.486798 0.492122 -15.231940 9.787988 15.944096 -66.896178 -43.117880 -7.538011 -15.706206 3.079281 3.615897 -22.642215 -4.553415 -35.811984 73.887893 -41.251232 6.220719 -14.430492 12.467418 0.006040 -0.074519 0.019570 -5.638611 -20.240840 3.928945 85.310665 82.692021 84.989393 0.543007 -22.136888 -17.198753 0.046656 0.089852 0.028390
